<?xml version="1.0" encoding="utf-8"?>
<!-- Generator: Adobe Illustrator 25.3.0, SVG Export Plug-In . SVG Version: 6.00 Build 0)  -->
<svg version="1.1" id="Layer_1" xmlns="http://www.w3.org/2000/svg" xmlns:xlink="http://www.w3.org/1999/xlink" x="0px" y="0px"
	 viewBox="0 0 513 513" style="enable-background:new 0 0 513 513;" xml:space="preserve">
<g>
	<g>
		<path d="M256.5,513C115.1,513,0,397.9,0,256.5C0,115.1,115.1,0,256.5,0S513,115.1,513,256.5C513,397.9,397.9,513,256.5,513z
			 M256.5,41C137.7,41,41,137.7,41,256.5S137.7,472,256.5,472c118.8,0,215.4-96.6,215.4-215.4S375.3,41,256.5,41z"/>
	</g>
	<g>
		<g>
			<path d="M219.9,368.4l-15.3-15.3c-5.1-5.1-5.1-13.4,0-18.6l78-78l-78-78c-5.1-5.1-5.1-13.4,0-18.6l15.3-15.3
				c5.1-5.1,13.4-5.1,18.6,0L341,247.2c5.1,5.1,5.1,13.4,0,18.6L238.5,368.4C233.3,373.5,225,373.5,219.9,368.4z"/>
		</g>
	</g>
</g>
</svg>
